<?xml version="1.0" standalone="no"?><!DOCTYPE svg PUBLIC "-//W3C//DTD SVG 1.1//EN" "http://www.w3.org/Graphics/SVG/1.1/DTD/svg11.dtd"><svg t="1765870818133" class="icon" viewBox="0 0 1097 1024" version="1.1" xmlns="http://www.w3.org/2000/svg" p-id="6357" xmlns:xlink="http://www.w3.org/1999/xlink" width="274.25" height="256"><path d="M84.845714 99.913143l6.363429 0.438857c23.844571 3.657143 40.96 25.6 40.96 51.2v603.428571c0 29.257143 17.042286 54.857143 40.96 65.828572l348.16 157.257143-426.715429-76.8a73.142857 73.142857 0 0 1-58.002285-73.142857v-676.571429c0-32.914286 27.282286-54.857143 54.637714-51.2z m975.725715 51.638857v676.571429a73.142857 73.142857 0 0 1-58.002286 73.142857l-426.715429 76.8 348.16-157.257143a72.411429 72.411429 0 0 0 40.96-65.828572v-603.428571c0-25.6 17.115429-47.542857 40.96-51.2 27.355429-3.657143 54.637714 18.285714 54.637715 51.2zM265.289143 8.923429l232.082286 153.6c13.677714 10.971429 23.917714 25.6 23.917714 43.885714v768H517.851429l-296.96-197.485714c-20.48-14.628571-30.72-36.571429-30.72-62.171429V52.809143c0-40.228571 40.96-65.828571 75.117714-43.885714z m566.564571 0c34.157714-21.942857 75.117714 3.657143 75.117715 43.885714v661.942857c0 25.6-10.24 47.542857-30.72 62.171429l-296.96 197.485714-3.437715-768c0-18.285714 10.24-32.914286 23.917715-43.885714z" fill="#94A4AE" p-id="6358"></path></svg>