<?xml version="1.0" standalone="no"?><!DOCTYPE svg PUBLIC "-//W3C//DTD SVG 1.1//EN" "http://www.w3.org/Graphics/SVG/1.1/DTD/svg11.dtd"><svg t="1765846461514" class="icon" viewBox="0 0 1024 1024" version="1.1" xmlns="http://www.w3.org/2000/svg" p-id="8901" xmlns:xlink="http://www.w3.org/1999/xlink" width="256" height="256"><path d="M688 312v-48A8 8 0 0 0 680 256h-384a8 8 0 0 0-8 8v48c0 4.416 3.584 8 8 8h384a8 8 0 0 0 8-8zM296 400a8 8 0 0 0-8 8v48c0 4.416 3.584 8 8 8H480a8 8 0 0 0 8-8v-48A8 8 0 0 0 480 400H296zM672 516.032a216 216 0 1 0 0 432 216 216 0 0 0 0-432z m107.52 323.456a151.04 151.04 0 0 1-107.52 44.48 151.04 151.04 0 0 1-107.52-44.48 151.04 151.04 0 0 1-44.48-107.52c0-40.576 15.808-78.72 44.48-107.52a151.04 151.04 0 0 1 107.52-44.416 151.04 151.04 0 0 1 107.52 44.48 151.04 151.04 0 0 1 44.48 107.52 151.04 151.04 0 0 1-44.48 107.52z m-18.56-183.488h-44.288a7.936 7.936 0 0 0-6.464 3.328l-63.488 87.744-23.104-31.872a7.936 7.936 0 0 0-6.528-3.328h-44.096a8 8 0 0 0-6.464 12.736l73.792 102.08c3.2 4.416 9.664 4.416 12.864 0l114.24-158.016a7.936 7.936 0 0 0-6.4-12.672z m-320.96 196.032H208v-704H768v343.936c0 4.48 3.584 8 8 8H832a8 8 0 0 0 8-8v-384a32 32 0 0 0-32-32h-640a32 32 0 0 0-32 32v784a32 32 0 0 0 32 32h272A8 8 0 0 0 448 916.032v-56.064a8 8 0 0 0-8-7.936z" p-id="8902"></path></svg>